HIERARCHY
ROOT ui
{
	 OFFSET 0 0 0
	 CHANNELS 3 XPosition YPosition Z Position
	 EndSite
	 {
	 OFFSET 0 -1 0
	 }
}
ROOT li
{
	 OFFSET 0 0 0
	 CHANNELS 3 XPosition YPosition Z Position
	 EndSite
	 {
	 OFFSET 0 -1 0
	 }
}
ROOT ul
{
	 OFFSET 0 0 0
	 CHANNELS 3 XPosition YPosition Z Position
	 EndSite
	 {
	 OFFSET 0 -1 0
	 }
}
ROOT ll
{
	 OFFSET 0 0 0
	 CHANNELS 3 XPosition YPosition Z Position
	 EndSite
	 {
	 OFFSET 0 -1 0
	 }
}
ROOT tt
{
	 OFFSET 0 0 0
	 CHANNELS 3 XPosition YPosition Z Position
	 EndSite
	 {
	 OFFSET 0 -1 0
	 }
}
ROOT tb
{
	 OFFSET 0 0 0
	 CHANNELS 3 XPosition YPosition Z Position
	 EndSite
	 {
	 OFFSET 0 -1 0
	 }
}
ROOT td
{
	 OFFSET 0 0 0
	 CHANNELS 3 XPosition YPosition Z Position
	 EndSite
	 {
	 OFFSET 0 -1 0
	 }
}
ROOT v
{
	 OFFSET 0 0 0
	 CHANNELS 3 XPosition YPosition Z Position
	 EndSite
	 {
	 OFFSET 0 -1 0
	 }
}
ROOT bn
{
	 OFFSET 0 0 0
	 CHANNELS 3 XPosition YPosition Z Position
	 EndSite
	 {
	 OFFSET 0 -1 0
	 }
}
MOTION
Frames: 27
Frame Time: 0.002
-0.0034220099449157717	-0.005183148860931397	0		0.6044617919921875	-2.6119560546875	0		-0.939756591796875	0.21405549621582032	0		-0.5293694458007813	-2.71520166015625	0		1.8160379638671875	-1.5062811279296875	0		3.004888916015625	-0.4944334716796875	0		4.48956787109375	0.235120849609375	0		5.97274072265625	0.5106732788085937	0		-0.3200490417480469	5.8704375	0		
-0.0034127039909362792	-0.005011781215667725	0		0.6085288696289063	-2.607809326171875	0		-0.8607904663085938	0.20860794067382812	0		-0.5261547241210938	-2.6920595703125	0		1.82503173828125	-1.5101602783203125	0		3.03977099609375	-0.5115003662109375	0		4.51045849609375	0.22017727661132813	0		5.9776748046875	0.5018683166503907	0		-0.2689942321777344	5.8842119140625	0		
0.0076814951896667484	0.006085340976715088	0		0.585618896484375	-2.6004443359375	0		-0.92478857421875	0.20827474975585938	0		-0.5199107055664063	-2.664929443359375	0		1.8301024169921876	-1.503998779296875	0		3.056908447265625	-0.495419677734375	0		4.52735009765625	0.20527337646484375	0		5.96881103515625	0.51917822265625	0		-0.3020953369140625	5.87764599609375	0		
6.383190155029297E-4	-6.675099730491639E-4	0		0.6085989379882812	-2.607422607421875	0		-0.86983544921875	0.20103622436523438	0		-0.4778460083007813	-2.661064697265625	0		1.863056640625	-1.51304248046875	0		3.06073876953125	-0.519228515625	0		4.57124951171875	0.19117007446289064	0		5.97262451171875	0.4943963317871094	0		-0.3041236572265625	5.8798515625	0		
0.003672386884689331	0.002512938976287842	0		0.5707027587890625	-2.597921875	0		-0.8688953247070312	0.19222491455078125	0		-0.5146495361328125	-2.639581298828125	0		1.8630806884765625	-1.5128228759765625	0		3.066700439453125	-0.5260444946289062	0		4.55509814453125	0.1705365753173828	0		5.97263134765625	0.49465127563476563	0		-0.2842098693847656	5.87389892578125	0		
-0.00833180809020996	8.187130093574524E-4	0		0.6066487426757813	-2.60897998046875	0		-0.868885986328125	0.19243154907226562	0		-0.5164871215820312	-2.622357177734375	0		1.8700496826171875	-1.51964794921875	0		3.097706787109375	-0.5270444946289062	0		4.58194580078125	0.1495797119140625	0		5.96364599609375	0.4959814453125	0		-0.28523806762695314	5.87511767578125	0		
0.003692867040634155	0.0029490580558776854	0		0.5646709594726562	-2.609430908203125	0		-0.9319448852539063	0.18413124084472657	0		-0.5112666931152344	-2.597177490234375	0		1.88308544921875	-1.5175115966796875	0		3.110804443359375	-0.5158994750976562	0		4.5989384765625	0.14770526123046876	0		5.96870556640625	0.5032088623046875	0		-0.2832865905761719	5.8733232421875	0		
0.03069957733154297	0.0029721620082855224	0		0.6018016357421875	-2.595481201171875	0		-0.8579407348632813	0.18378807067871095	0		-0.5080584411621094	-2.572974365234375	0		1.8861256103515625	-1.51429248046875	0		3.130684326171875	-0.5328020629882813	0		4.625783203125	0.12675879669189452	0		5.97770947265625	0.5034086303710937	0		-0.28430947875976564	5.87455908203125	0		
-0.008311972618103028	0.0015065439939498902	0		0.5728193359375	-2.595020263671875	0		-0.857008056640625	0.17501145935058593	0		-0.5099191589355468	-2.556726806640625	0		1.89818212890625	-1.5081387939453126	0		3.11980517578125	-0.5174656982421875	0		4.62467041015625	0.11202762603759765	0		5.97770947265625	0.5036767272949219	0		-0.2843389282226563	5.87479296875	0		
-0.0033577659130096436	-0.0032932429313659666	0		0.5709987182617188	-2.571764892578125	0		-0.8710386962890625	0.1723535461425781	0		-0.5207090454101563	-2.5294072265625	0		1.8722430419921876	-1.49969384765625	0		3.16167626953125	-0.5335354614257812	0		4.6426162109375	0.10614743041992188	0		5.97263916015625	0.49597821044921875	0		-0.31742306518554686	5.86828271484375	0		
-0.056371166229248044	-0.001649145007133484	0		0.572806396484375	-2.59453955078125	0		-0.8701229858398437	0.16458258056640626	0		-0.5434722290039062	-2.495994873046875	0		1.917146240234375	-1.509794677734375	0		3.12571728515625	-0.525013916015625	0		4.640478515625	0.09141313934326172	0		5.96954638671875	0.48725466918945315	0		-0.3174600830078125	5.8685205078125	0		
-0.0034195079803466797	-0.0028182768821716307	0		0.6106988525390625	-2.60359326171875	0		-0.860170166015625	0.16374195861816407	0		-0.5643715209960938	-2.4775986328125	0		1.89909326171875	-1.5114193115234376	0		3.18750048828125	-0.5482493286132812	0		4.66131640625	0.07549215698242187	0		5.965568359375	0.4955250549316406	0		-0.3165181274414062	5.8667490234375	0		
0.012574629783630371	0.003291407108306885	0		0.5897214965820312	-2.593201416015625	0		-0.8602212524414062	0.16397531127929688	0		-0.47834420776367187	-2.467024169921875	0		1.9202078857421876	-1.4893507080078126	0		3.186670654296875	-0.5190140991210938	0		4.664318359375	0.0826955795288086	0		5.97352490234375	0.49668881225585937	0		-0.2664336242675781	5.8835986328125	0		
0.03052530288696289	0.004379961967468262	0		0.5748644409179687	-2.565862548828125	0		-0.8653077392578125	0.16024269104003908	0		-0.5261998901367188	-2.4394296875	0		1.92014697265625	-1.4891300048828124	0		3.183574462890625	-0.5237740478515625	0		4.687154296875	0.06873248291015625	0		5.96546240234375	0.4959587707519531	0		-0.2825487060546875	5.87394873046875	0		
-0.003583856105804443	-0.0021410999298095705	0		0.5727805786132812	-2.567631591796875	0		-0.86939404296875	0.15649594116210938	0		-0.4571780090332031	-2.427737548828125	0		1.957059326171875	-1.4922039794921875	0		3.177569091796875	-0.5165248413085938	0		4.683044921875	0.061959678649902344	0		5.9562861328125	0.480218505859375	0		-0.2825776062011719	5.87416845703125	0		
0.0013303329944610595	-0.005971335887908936	0		0.5994932250976562	-2.595633544921875	0		-0.8785090942382813	0.14877885437011718	0		-0.51712451171875	-2.411067138671875	0		1.95004833984375	-1.4849554443359374	0		3.19844873046875	-0.52449853515625	0		4.6879365234375	0.055098743438720704	0		5.96029541015625	0.4883564453125	0		-0.31663897705078126	5.86863916015625	0		
-0.0036924109458923338	-0.0017377920150756837	0		0.6044710083007813	-2.58848193359375	0		-0.8576387329101562	0.13882080078125	0		-0.5140376586914063	-2.38989111328125	0		1.95805859375	-1.4748385009765625	0		3.19054443359375	-0.5042698974609375	0		4.68676806640625	0.04026192092895508	0		5.96024609375	0.48850057983398437	0		-0.31664984130859375	5.86783740234375	0		
0.003308732032775879	0.005389331817626953	0		0.5516231689453125	-2.55790087890625	0		-0.8586204833984376	0.14801844787597657	0		-0.5369841918945313	-2.372528076171875	0		1.9560904541015625	-1.461663330078125	0		3.204409423828125	-0.5142301025390625	0		4.70076171875	0.04628532028198242	0		5.96526025390625	0.49657952880859374	0		-0.2815946960449219	5.87375244140625	0		
-0.003796371936798096	-0.0013910050392150878	0		0.578515380859375	-2.560949951171875	0		-0.8668007202148438	0.13125701904296874	0		-0.5149124145507813	-2.352525634765625	0		1.9431363525390626	-1.4464228515625	0		3.208458984375	-0.5001362915039063	0		4.6966572265625	0.03942235565185547	0		5.9601533203125	0.488708251953125	0		-0.28157174682617186	5.873921875	0		
-0.003846895933151245	-0.0012423139810562134	0		0.5764119262695313	-2.56279443359375	0		-0.8668493041992188	0.1314183807373047	0		-0.5188893432617188	-2.338339111328125	0		1.945087646484375	-1.4433182373046876	0		3.212439697265625	-0.4950657653808594	0		4.7084990234375	0.02540991401672363	0		5.956171875	0.496800048828125	0		-0.2815360412597656	5.87407421875	0		
0.0010729600191116333	-0.005150623798370361	0		0.5763199462890625	-2.562673828125	0		-0.86092724609375	0.1275167922973633	0		-0.5139390869140625	-2.333239013671875	0		1.94803759765625	-1.4402440185546874	0		3.20834375	-0.4999583435058594	0		4.702396484375	0.018507795333862306	0		5.94787646484375	0.46389324951171873	0		-0.31653204345703123	5.86847998046875	0		
0.0010261950492858887	-0.005039947032928467	0		0.524288330078125	-2.55417138671875	0		-0.8609714965820312	0.12764378356933595	0		-0.538920654296875	-2.31892529296875	0		1.955033203125	-1.431224609375	0		3.20531103515625	-0.49688519287109373	0		4.695396484375	0.024583589553833007	0		5.95696240234375	0.47982119750976565	0		-0.2993984375	5.87746484375	0		
0.012060053825378418	0.00496533203125	0		0.5831969604492188	-2.5535498046875	0		-0.8410283813476562	0.12559769439697266	0		-0.5028820190429687	-2.30210302734375	0		1.9220303955078124	-1.421918701171875	0		3.234473876953125	-0.4690879821777344	0		4.70029931640625	0.017536869049072267	0		5.95692919921875	0.4797864685058594	0		-0.283248291015625	5.8864375	0		
-0.004026165008544922	-8.382620215415954E-4	0		0.5551060791015625	-2.5522734375	0		-0.86104931640625	0.1278449020385742	0		-0.5070145568847656	-2.30698828125	0		1.947050048828125	-1.4100869140625	0		3.201392578125	-0.4728341979980469	0		4.692267578125	0.01856151008605957	0		5.95689990234375	0.47971954345703127	0		-0.2661673278808594	5.88438330078125	0		
9.047769904136657E-4	-0.004824174880981445	0		0.5779401245117187	-2.5604140625	0		-0.8651148071289062	0.12395120239257812	0		-0.5219541015625	-2.2868056640625	0		1.8961109619140626	-1.392685302734375	0		3.2113974609375	-0.46594125366210937	0		4.70222998046875	0.018416671752929686	0		5.9438125	0.4717225341796875	0		-0.3151863708496094	5.86782666015625	0		
-0.004100252151489258	-7.504109740257264E-4	0		0.5528726806640625	-2.555199462890625	0		-0.8542266235351562	0.11392387390136718	0		-0.520030517578125	-2.283772216796875	0		1.899059326171875	-1.389726806640625	0		3.20129345703125	-0.47291696166992186	0		4.69308447265625	0.004391969203948975	0		5.93565625	0.4546556396484375	0		-0.31506005859375	5.8678701171875	0		
8.317400217056274E-4	-0.004772020816802979	0		0.5817589721679688	-2.555427001953125	0		-0.854259521484375	0.11396697235107422	0		-0.5371031494140625	-2.27960546875	0		1.868076904296875	-1.3775223388671876	0		3.200408447265625	-0.45198806762695315	0		4.69104052734375	0.003284778118133545	0		5.94869580078125	0.462392822265625	0		-0.2988424377441406	5.87777099609375	0		
